<svg id="Layer_1" data-name="Layer 1" xmlns="http://www.w3.org/2000/svg" viewBox="0 0 323.74 147.59"><defs><style>.cls-1,.cls-10,.cls-2,.cls-3,.cls-4,.cls-5,.cls-6,.cls-7,.cls-8,.cls-9{fill:none;stroke:#ffff00;}.cls-1,.cls-2,.cls-3,.cls-4,.cls-5,.cls-6,.cls-7{stroke-miterlimit:10;}.cls-2,.cls-8{stroke-width:4px;}.cls-3,.cls-9{stroke-width:2px;}.cls-4{stroke-width:5px;}.cls-5{stroke-width:0.5px;}.cls-10,.cls-6{stroke-width:3px;}.cls-7{stroke-width:6px;}.cls-10,.cls-8,.cls-9{stroke-linecap:round;stroke-linejoin:round;}</style></defs><line class="cls-1" x1="59.26" y1="123.81" x2="71.59" y2="123.81"/><line class="cls-1" x1="59.26" y1="132.51" x2="71.59" y2="132.51"/><polyline class="cls-2" points="257 16.59 235 45.59 235 36.59 257 16.59"/><line class="cls-3" x1="234.63" y1="127.7" x2="185.26" y2="127.7"/><line class="cls-3" x1="185.26" y1="82.07" x2="234.63" y2="82.07"/><line class="cls-3" x1="226.19" y1="136.15" x2="226.19" y2="43.59"/><line class="cls-2" x1="216.44" y1="50.59" x2="216.44" y2="136.15"/><line class="cls-3" x1="206.57" y1="57.6" x2="206.57" y2="136.15"/><line class="cls-3" x1="233.89" y1="68.59" x2="216.44" y2="70.81"/><polyline class="cls-2" points="164.65 79.31 164.65 136.15 128.7 136.15"/><line class="cls-2" x1="196.26" y1="136.15" x2="196.26" y2="64.64"/><rect class="cls-4" x="27.56" y="104.44" width="31.7" height="31.7"/><polyline class="cls-2" points="235 36.59 234.63 145.19 14.93 145.19 14.93 137.93 14.93 129.33 14.93 95.26"/><line class="cls-2" x1="127.7" y1="104.44" x2="127.7" y2="86.39"/><line class="cls-3" x1="141.22" y1="136.15" x2="141.22" y2="84.12"/><line class="cls-2" x1="153.66" y1="81.75" x2="153.66" y2="136.15"/><line class="cls-3" x1="164.65" y1="127.7" x2="128.7" y2="127.7"/><line class="cls-3" x1="87.52" y1="127.7" x2="98.78" y2="127.7"/><line class="cls-1" x1="74.12" y1="95.26" x2="74.12" y2="145.19"/><line class="cls-2" x1="71.59" y1="145.19" x2="71.59" y2="95.26"/><line class="cls-1" x1="14.93" y1="97.81" x2="71.59" y2="97.81"/><line class="cls-1" x1="71.59" y1="101.37" x2="14.93" y2="101.37"/><line class="cls-1" x1="14.93" y1="106.22" x2="26.78" y2="106.22"/><line class="cls-1" x1="59.26" y1="106.22" x2="71.59" y2="106.22"/><line class="cls-1" x1="14.93" y1="110.85" x2="26.78" y2="110.85"/><line class="cls-1" x1="59.26" y1="110.85" x2="71.59" y2="110.85"/><line class="cls-1" x1="14.93" y1="115" x2="26.78" y2="115"/><line class="cls-1" x1="59.26" y1="115" x2="71.59" y2="115"/><line class="cls-1" x1="14.93" y1="119.22" x2="26.78" y2="119.22"/><line class="cls-1" x1="59.26" y1="119.3" x2="71.59" y2="119.3"/><line class="cls-1" x1="14.93" y1="123.81" x2="26.78" y2="123.81"/><line class="cls-1" x1="14.93" y1="128.33" x2="26.78" y2="128.33"/><line class="cls-1" x1="59.26" y1="128.33" x2="71.59" y2="128.33"/><line class="cls-1" x1="14.93" y1="132.51" x2="26.78" y2="132.51"/><line class="cls-1" x1="14.93" y1="136.93" x2="71.59" y2="136.93"/><line class="cls-1" x1="14.93" y1="140.89" x2="71.59" y2="140.89"/><line class="cls-1" x1="74.12" y1="97.81" x2="87.52" y2="97.81"/><line class="cls-1" x1="74.12" y1="101.37" x2="87.52" y2="101.37"/><line class="cls-1" x1="74.12" y1="106.22" x2="87.52" y2="106.22"/><line class="cls-1" x1="74.12" y1="110.85" x2="87.52" y2="110.85"/><line class="cls-1" x1="74.12" y1="115" x2="87.52" y2="115"/><line class="cls-1" x1="74.12" y1="119.22" x2="87.52" y2="119.22"/><line class="cls-1" x1="74.12" y1="123.56" x2="87.52" y2="123.56"/><line class="cls-1" x1="74.12" y1="128.33" x2="87.52" y2="128.33"/><line class="cls-1" x1="74.12" y1="132.51" x2="87.52" y2="132.51"/><line class="cls-1" x1="74.12" y1="136.93" x2="98.78" y2="136.93"/><line class="cls-1" x1="74.12" y1="140.89" x2="98.78" y2="140.89"/><polyline class="cls-2" points="88.52 91.72 88.52 136.15 99.78 136.15 99.78 90.75"/><polygon class="cls-2" points="9.93 95.26 71.59 95.26 174.68 78.17 218 49.59 235 36.59 257 16.59 257 2.59 2 19.94 2 53.48 9.93 95.26"/><line class="cls-1" x1="128.7" y1="140.89" x2="234.63" y2="140.89"/><polyline class="cls-2" points="233.89 136.15 185.26 136.15 185.26 128.78 185.26 71.54"/><path class="cls-1" d="M157.7,188.56" transform="translate(-29 -52.41)"/><path class="cls-1" d="M214.26,184.92" transform="translate(-29 -52.41)"/><path class="cls-1" d="M193.65,184.92" transform="translate(-29 -52.41)"/><line class="cls-1" x1="128.7" y1="137.15" x2="233.89" y2="137.15"/><line class="cls-1" x1="164.65" y1="132.11" x2="185.26" y2="132.11"/><path class="cls-5" d="M214.26,176.22" transform="translate(-29 -52.41)"/><path class="cls-5" d="M193.65,176.22" transform="translate(-29 -52.41)"/><line class="cls-1" x1="164.65" y1="127.7" x2="185.26" y2="127.7"/><line class="cls-1" x1="164.65" y1="123.81" x2="185.26" y2="123.81"/><line class="cls-1" x1="164.65" y1="119.22" x2="185.26" y2="119.22"/><line class="cls-1" x1="164.65" y1="115" x2="185.26" y2="115"/><line class="cls-1" x1="164.65" y1="110.85" x2="185.26" y2="110.85"/><line class="cls-1" x1="165.16" y1="106.22" x2="185.76" y2="106.22"/><line class="cls-1" x1="164.65" y1="101.37" x2="185.26" y2="101.37"/><line class="cls-1" x1="164.65" y1="96.81" x2="185.26" y2="96.81"/><line class="cls-1" x1="165.16" y1="91.72" x2="185.76" y2="91.72"/><line class="cls-1" x1="165.16" y1="86.39" x2="185.76" y2="86.39"/><line class="cls-1" x1="165.16" y1="81.75" x2="185.76" y2="81.75"/><line class="cls-1" x1="176.72" y1="76.89" x2="185.26" y2="76.89"/><path class="cls-6" d="M49.37,55.81" transform="translate(-29 -52.41)"/><path class="cls-6" d="M31,55.81" transform="translate(-29 -52.41)"/><polygon class="cls-2" points="18 18.59 4.59 18.94 4.59 2.41 17.93 2.41 18 18.59"/><line class="cls-2" x1="1" y1="2" x2="22" y2="2"/><polyline class="cls-2" points="4.59 67.15 4.59 142.96 14.93 142.96"/><polygon class="cls-7" points="127.56 142.96 113.78 142.96 100 142.96 100 106.22 127.56 106.22 127.56 142.96"/><line class="cls-7" x1="113.78" y1="106.22" x2="113.78" y2="142.96"/><line class="cls-3" x1="113.78" y1="88.27" x2="113.78" y2="103.84"/><line class="cls-2" x1="115" y1="132.11" x2="126.37" y2="132.11"/><line class="cls-8" x1="293" y1="145.59" x2="293.18" y2="79.02"/><path class="cls-9" d="M322.18,152.43" transform="translate(-29 -52.41)"/><path class="cls-10" d="M307.63,134.46c15,2,15,14,15,14" transform="translate(-29 -52.41)"/><path class="cls-10" d="M322.64,156.7c5-16.24,13.83-13.27,13.83-13.27" transform="translate(-29 -52.41)"/><path class="cls-8" d="M322.64,170.09c-17,8.37-19-8.63-19-8.63-13,0-3-12-3-12-19.37-11-1-24-1-24-3-14,12-13,12-13,7-13,21,4,21,4,17.89-3,10,14,10,14,17,9,2,15,2,15,7.08,14-6.92,17-6.92,17C343.63,178.46,322.64,170.09,322.64,170.09Z" transform="translate(-29 -52.41)"/></svg>